<!-- <svg width="24" height="24" viewBox="0 0 24 24" fill="none" xmlns="http://www.w3.org/2000/svg">
<path d="M12 17.99V14.99M9.02 2.83999L3.63 7.03999C2.73 7.73999 2 9.22999 2 10.36V17.77C2 20.09 3.89 21.99 6.21 21.99H17.79C20.11 21.99 22 20.09 22 17.78V10.5C22 9.28999 21.19 7.73999 20.2 7.04999L14.02 2.71999C12.62 1.73999 10.37 1.78999 9.02 2.83999Z" stroke="#C9DDFF" stroke-width="1.5" stroke-linecap="round" stroke-linejoin="round"/>
</svg> -->


<svg width="256px" height="256px" viewBox="0 0 24.00 24.00" fill="none" xmlns="http://www.w3.org/2000/svg"><g id="SVGRepo_bgCarrier" stroke-width="0"></g><g id="SVGRepo_tracerCarrier" stroke-linecap="round" stroke-linejoin="round"></g><g id="SVGRepo_iconCarrier"> <path d="M12 15L12 18" stroke="#c9ddff" stroke-width="2.4" stroke-linecap="round"></path> <path d="M21.6359 12.9579L21.3572 14.8952C20.8697 18.2827 20.626 19.9764 19.451 20.9882C18.2759 22 16.5526 22 13.1061 22H10.8939C7.44737 22 5.72409 22 4.54903 20.9882C3.37396 19.9764 3.13025 18.2827 2.64284 14.8952L2.36407 12.9579C1.98463 10.3208 1.79491 9.00229 2.33537 7.87495C2.87583 6.7476 4.02619 6.06234 6.32691 4.69181L7.71175 3.86687C9.80104 2.62229 10.8457 2 12 2C13.1543 2 14.199 2.62229 16.2882 3.86687L17.6731 4.69181C19.9738 6.06234 21.1242 6.7476 21.6646 7.87495" stroke="#c9ddff" stroke-width="2.4" stroke-linecap="round"></path> </g></svg>